<svg width="96" height="96" viewBox="0 0 96 96" fill="none" xmlns="http://www.w3.org/2000/svg">
  <defs>
    <linearGradient id="ricBlue" x1="10" y1="8" x2="84" y2="90" gradientUnits="userSpaceOnUse">
      <stop stop-color="#2F85FF"/>
      <stop offset="1" stop-color="#0B3572"/>
    </linearGradient>
  </defs>
  <circle cx="48" cy="48" r="44" fill="url(#ricBlue)"/>
  <circle cx="48" cy="48" r="36" fill="#0A2C5D" fill-opacity="0.35" stroke="#9DC7FF" stroke-width="2"/>
  <path d="M48 22L71 33V37C71 49 63.5 60 48 66C32.5 60 25 49 25 37V33L48 22Z" fill="#F1F7FF"/>
  <path d="M38 40V56H44.2C48.7 56 52 52.9 52 48.1C52 43.2 48.8 40 44.2 40H38ZM42.2 43.5H44C46.3 43.5 47.8 45.2 47.8 48.1C47.8 50.9 46.2 52.5 44 52.5H42.2V43.5Z" fill="#0B3572"/>
  <path d="M54 40V56H58.2V50.2H63.6V46.9H58.2V43.4H64.4V40H54Z" fill="#0B3572"/>
  <rect x="18" y="73" width="60" height="8" rx="4" fill="#84B7FF" fill-opacity="0.6"/>
</svg>
